<svg xmlns="http://www.w3.org/2000/svg" viewBox="0 0 18 18" fill="#949494"><path d="M12.612 18H5.389C2.418 18 0 15.64 0 12.741V5.259C0 2.358 2.418 0 5.39 0h7.222C15.584 0 18 2.358 18 5.259v7.482c0 2.9-2.416 5.259-5.388 5.259zM5.389 1.823c-1.965 0-3.565 1.542-3.565 3.436v7.482c0 1.894 1.6 3.436 3.565 3.436h7.223c1.965 0 3.565-1.542 3.565-3.436V5.259c0-1.894-1.6-3.436-3.565-3.436H5.389zm9.441 3.193a1.251 1.251 0 0 1-1.248 1.251 1.25 1.25 0 1 1 1.249-1.251zM9 13a4.004 4.004 0 0 1-3.999-4c0-2.206 1.752-4 3.906-4l.112.002c2.47.071 4.03 1.646 3.981 4.012C12.951 11.248 11.194 13 9 13zm-.017-6c-1.118 0-1.982.897-1.982 2A2.001 2.001 0 0 0 9 11c1.097 0 1.976-.884 2-2.011.027-1.21-.727-1.952-2.014-1.99h-.003z" fill-rule="evenodd" clip-rule="evenodd"/></svg>