<svg version="1.1" id="svg207" width="388.2" height="45" xmlns="http://www.w3.org/2000/svg"><style id="style193">.ist0{fill:#353535}</style><path class="ist0" d="m363.7 19.1 2-8.5h4.7L365 35h-4.7l.5-2.2c-1.5 1.8-3.2 2.6-5.3 2.6-4 0-6.8-3.2-6.8-7.9 0-5.4 3.3-11.3 9.4-11.3 2.4.1 4.4 1.1 5.6 2.9zm-10.1 7.5c0 2.5 1.7 4.2 3.9 4.2 1.7 0 3.1-.9 4.1-2.1l1.4-6.1c-.8-1.2-2.3-2.1-4.2-2.1-3.1-.1-5.2 2.8-5.2 6.1zm15.2.7c0-6 4.5-11 10.6-11 4.7 0 8.2 3 8.2 8.1 0 1.1-.2 2.5-.4 3h-13.6v.5c0 1.6 1.6 3.6 5 3.6 1.6 0 3.5-.5 4.6-1.3l1.5 3.4c-1.8 1.2-4.2 1.9-6.5 1.9-5.7 0-9.4-3.1-9.4-8.2zm14.5-3.2v-.4c0-1.9-1.4-3.5-4.2-3.5-2.6 0-4.5 1.9-4.9 3.9z" id="path195"/><g fill-rule="evenodd" clip-rule="evenodd" id="g201" transform="translate(-17.8 -22)"><path d="m64.7 30.6-2.3 10.8c-1 5-3.1 15.1-12.8 15.1H22.1c0 .1 15.4-22.1 42.6-25.9" fill="#d33d52" id="path197"/><path d="m17.8 43.1 2.5-12.5c1.3-6.5 4.4-8.6 9.4-8.6h36.6l-.6 2.9c0-.1-32.2.4-47.9 18.2z" fill="#5e828c" id="path199"/></g><path class="ist0" d="m50.2 34.6 7-32h7.2l-5.6 25.7H73l-1.4 6.3zM74 24.2c0-7.9 6-14.6 14.1-14.6 6.3 0 11 4 11 10.9 0 1.5-.3 3.3-.5 4H80.4v.6c0 2.1 2.2 4.8 6.7 4.8 2.2 0 4.6-.6 6.2-1.8l2 4.5c-2.4 1.6-5.6 2.5-8.6 2.5C79 35.2 74 31 74 24.2ZM93.3 20c.1-.1.1-.4.1-.5 0-2.5-1.8-4.7-5.7-4.7-3.5 0-6.1 2.5-6.6 5.2zm27.9-6.6.7-3.2h6.5L123 34.6h-6.5l.7-3c-2.1 2.4-4.4 3.6-7.3 3.6-5.5 0-9.3-3.6-9.3-10.1 0-7.4 4.6-15.5 12.9-15.5 3.2-.1 6.1 1.4 7.7 3.8zm-13.9 10.3c0 3.5 2.3 5.7 5.4 5.7 2.3 0 4.3-1.3 5.6-2.9l1.9-8.4c-1.1-1.7-3.1-2.8-5.7-2.8-4.2 0-7.2 3.9-7.2 8.4zm19.1 7.1 3.6-4.5c1.5 1.7 5 3.8 8.5 3.8 2.2 0 3.5-1.2 3.5-2.5 0-3.3-12.4-2.5-12.4-9.8 0-4.2 3.5-8.2 10.1-8.2 4.1 0 8 1.6 10.4 3.9l-3.3 4.3c-1.2-1.5-4.2-3.2-7.2-3.2-2.3 0-3.5 1-3.5 2.3 0 3 12.4 2.3 12.4 9.7 0 4.6-3.9 8.5-10.6 8.5-4.4.1-8.7-1.5-11.5-4.3zm23 3.8 5.4-24.4h6.4l-5.4 24.4zm26.4 0 3.3-14.8c.1-.5.2-1 .2-1.4 0-2.2-1.8-3.1-4.2-3.1-2.2 0-4.3 1.5-5.7 2.8l-3.6 16.5h-6.4l5.4-24.4h6.4l-.7 3.1c1.9-1.8 4.5-3.7 8.1-3.7 4.7 0 7.6 2.4 7.6 6.2 0 .5-.2 1.5-.3 2l-3.7 16.8zm9.2 5.6 3.8-4.2c1.6 2.1 4.7 3.2 7.9 3.2 3 0 5.9-1.3 6.9-6.3l.5-2.3c-1.8 2.3-4.5 3.7-7.5 3.7-4.9 0-9.2-2.9-9.2-9.9 0-7.4 4.7-14.9 12.6-14.9 3 0 6.1 1.5 7.9 3.8l.8-3.2h6.4L210 32.9c-2.1 9.2-8 11.5-13.3 11.5-4.7.1-8.7-1.1-11.7-4.2Zm20.2-14.4 1.7-7.6c-1.2-1.9-3.4-3-6-3-4 0-6.8 3.5-6.8 7.9 0 3.3 2.2 5.5 5.6 5.5 2.1 0 4.2-1.2 5.5-2.8zm36.3 8.8 5-24.3-13.7 24.3h-2.9l-3.8-24.3-5 24.3h-6.6l6.3-32h10l2.9 19.3 10.5-19.3h10.4l-6.3 32zm32.2-21.2.7-3.2h6.5l-5.4 24.4H269l.7-3c-2.1 2.4-4.4 3.6-7.3 3.6-5.5 0-9.3-3.6-9.3-10.1 0-7.4 4.6-15.5 12.9-15.5 3.2-.1 6.1 1.4 7.7 3.8zm-13.9 10.3c0 3.5 2.3 5.7 5.4 5.7 2.3 0 4.3-1.3 5.6-2.9l1.9-8.4c-1.1-1.7-3.1-2.8-5.7-2.8-4.3 0-7.2 3.9-7.2 8.4zm19.9 10.9 5.4-24.4h6.4l-.7 3.2c2.1-2.3 4.7-3.8 8.6-3.8L298 16c-.4-.1-1.3-.3-2.3-.3-2.4 0-4.6 1.3-6.1 2.9l-3.5 16zm33 0-4.5-9.6-3.8 3.3-1.4 6.3h-6.4l6.9-32h6.5l-3.9 18 11.4-10.5h8.1l-12.1 11.1 7 13.3h-7.8z" id="path203"/><path class="ist0" d="M325 29.9c0-.3.1-1.1.2-1.7l2.7-12.4h-8.6l5.9-5.6h4l1.5-7.4h6.4l-1.5 7.4h7.2l-1.3 5.6h-7.2l-2.4 10.7c-.1.3-.1.6-.1.9 0 1.3.6 2.3 2.2 2.3.7 0 1.5 0 4.1-.3l-1.2 4.8c-.9.7-3.2 1.1-4.8 1.1-4.2-.1-7.1-1.8-7.1-5.4zM155.3 7.1l1.1-5.3h6.4l-1.1 5.3zm184.4 27.5 1.1-5.3h6.4l-1.1 5.3z" id="path205"/></svg>