<svg fill="#949494" version="1.1" id="svg733" width="17" height="17" xmlns="http://www.w3.org/2000/svg"><g transform="translate(-1.214 -1.214) scale(.40476)" id="g731"><path d="M24 3C12.413 3 3 12.403 3 24.013c0 8.592 5.171 15.963 12.576 19.215-.055-1.454-.031-3.22.352-4.82l2.701-11.437s-.672-1.33-.672-3.336c0-3.103 1.804-5.426 4.069-5.426 1.919 0 2.814 1.452 2.814 3.163 0 1.917-1.218 4.791-1.856 7.432-.522 2.236 1.134 4.066 3.313 4.066 4.003 0 6.68-5.111 6.68-11.177 0-4.586-3.115-8.038-8.743-8.038-6.358 0-10.346 4.759-10.346 10.043 0 1.822.53 3.134 1.37 4.119.405.464.463.638.318 1.192l-.433 1.682c-.147.523-.551.727-1.047.523-2.932-1.19-4.297-4.416-4.297-8.04 0-5.95 5.024-13.094 15.015-13.094 8.014 0 13.3 5.775 13.3 12.017 0 8.245-4.588 14.398-11.35 14.398-2.273 0-4.389-1.25-5.121-2.612 0 0-1.216 4.82-1.478 5.746-.436 1.623-1.302 3.247-2.121 4.5A20.27 20.27 0 0 0 24 45c11.618 0 21-9.408 21-20.987C45 12.403 35.618 3 24 3" fill-rule="evenodd" clip-rule="evenodd" id="path729"/></g></svg>