<svg viewBox="0 0 59 32" xmlns="http://www.w3.org/2000/svg"><g clip-path="url('#nclip0')"><path d="M58.895 9.996c-.502.248-.502.248-.44.734l-.328.221.028.135h1.227l.016.152c-.259.067-.52.125-.777.204-.178.055-.397-.024-.503.31-.025.08-.2.075-.308.103-.138.037-.276.069-.414.102l.006.181 1.185.125.014.058-1.656.373-.008.15 1.293.512-.895.322.871.324-.657.419c.1.35.264.383.433.385.531.004 1.062.001 1.592.001l.004.127c-.28.046-.563.074-.84.149-.1.027-.186.164-.279.252.08.107.15.234.241.317.062.056.154.048.293.085l-1.15.86.02.2 1.171.27c-.08.338-.76.278-.279.892l-.555.281.635.46-.042.352.425.094c-.417.769-1.13.485-1.708.818.26.638.7.22 1.033.47-.215.528-.76.189-.996.693.1.082.186.156.282.237l-.502.112c.188.406.188.406.677.424.04.121.053.273.114.327.178.16.26.385.165.616-.058.14-.23.228-.363.27-.295.091-.597.139-.961.218l.287.477-.318.337.265.3-.239.27.68.16-.636.175c.12.278.31.52.301.75-.012.285-.166.579-.302.827-.072.132-.216.17-.1.397.017.034-.106.225-.182.315-.236.283-.532.504-.706.842-.126.246-.25.326-.432.342-.965.09-1.93.21-2.897.256-1.15.054-2.3.053-3.45.059-1.52.007-3.038-.03-4.557 0-2.263.045-4.525.12-6.787.206-1.614.06-3.228.138-4.84.246-1.625.108-3.248.282-4.873.392-1.5.1-3.003.134-4.503.231-1.882.122-3.763.258-5.643.425a360.82 360.82 0 0 0-6.262.629c-1.134.121-2.267.276-3.4.42-.89.115-1.78.258-2.67.35-1.086.11-2.173.2-3.26.262-.82.048-1.297-.541-1.455-1.634-.09-.63-.264-1.238-.37-1.865-.095-.567-.23-1.154-.201-1.72.037-.748-.108-1.465-.093-2.19.017-.821-.107-1.587-.28-2.352-.083-.37-.008-.688.07-1.048.179-.825.45-1.633.364-2.54-.027-.288-.01-.641.094-.879.17-.39.17-.761.152-1.18-.013-.287.047-.593.118-.87.121-.47.184-.915.135-1.435-.076-.812-.149-1.663.36-2.346.275-.37.629-.49.966-.57.563-.132 1.141-.154 1.714-.192.772-.051 1.545-.055 2.317-.112a454.78 454.78 0 0 0 5.716-.458c1.277-.11 2.55-.27 3.828-.375 1.078-.088 2.159-.123 3.238-.19 1.672-.103 3.343-.235 5.015-.314 1.645-.078 3.29-.09 4.935-.157 2.109-.085 4.217-.213 6.325-.287 1.4-.049 2.802-.032 4.203-.053 1.108-.017 2.216-.066 3.324-.064 1.32.002 2.638.047 3.957.066 1.055.015 2.109.019 3.163.028.853.008 1.707.015 2.56.024 1.077.012 2.154.027 3.231.04.461.006.94-.097 1.377.045.556.181 1.183.044 1.697.625z" fill="#F5F200"/><path d="M48.721 16.502c-.645-.625-1.512-.904-2.397-.904a3.71 3.71 0 0 0-2.66 1.09c-.718.73-1.187 1.821-1.187 3.271s.448 2.522 1.16 3.232c.712.71 1.68 1.05 2.703 1.05 1.33 0 2.597-.61 3.37-1.956a.082.082 0 0 0-.026-.108L48.67 21.5l-.045.067.045-.067a.081.081 0 0 0-.117.028c-.235.424-.524.739-.87.947-.345.209-.752.314-1.23.314-.637 0-1.211-.18-1.646-.572-.419-.378-.715-.961-.806-1.79h5.702a.081.081 0 0 0 .081-.082v-.901c0-1.353-.416-2.318-1.063-2.943zm-2.413.482c.545 0 1.032.178 1.384.553.34.363.56.92.575 1.697H44.02c.106-.75.396-1.305.79-1.675a2.15 2.15 0 0 1 1.496-.576zm-5.488-4.588h-1.368a.081.081 0 0 0-.081.081v11.537c0 .045.036.082.081.082h1.368a.081.081 0 0 0 .081-.082V12.477a.082.082 0 0 0-.081-.082zm-25.296 7.637c-.452-.334-1.026-.506-1.506-.65l-.61-.177c-.423-.13-.821-.252-1.116-.438-.288-.182-.469-.42-.469-.788 0-.33.134-.591.36-.773.228-.183.554-.288.943-.288.67 0 1.323.311 1.565.96a.081.081 0 0 0 .112.046l1.078-.531a.082.082 0 0 0 .04-.104c-.45-1.132-1.483-1.692-2.763-1.692-.779 0-1.486.217-2 .631-.516.416-.833 1.027-.833 1.8 0 .833.365 1.367.858 1.725.489.354 1.102.534 1.6.67l.579.161c.402.12.767.246 1.032.434.26.185.42.427.42.79a.954.954 0 0 1-.448.83c-.278.186-.664.28-1.08.28-.94 0-1.865-.484-2.158-1.47a.082.082 0 0 0-.104-.054l-1.175.402a.082.082 0 0 0-.052.1c.447 1.572 1.87 2.344 3.41 2.344.842 0 1.617-.233 2.183-.673a2.335 2.335 0 0 0 .923-1.903c0-.792-.332-1.294-.79-1.632zm12.579-3.777c-.49-.444-1.15-.658-1.834-.658-1.107 0-2.078.532-2.541 1.52-.313-.99-1.224-1.52-2.239-1.52-.891 0-1.777.43-2.192 1.174l-.206-.902a.081.081 0 0 0-.08-.063h-1.094a.082.082 0 0 0-.081.081v8.126c0 .045.036.082.081.082h1.368a.081.081 0 0 0 .081-.082V19.09c0-.667.204-1.172.523-1.51a1.68 1.68 0 0 1 1.247-.516c.447 0 .81.15 1.06.433.253.285.403.714.403 1.288v5.23c0 .044.036.08.081.08h1.368a.081.081 0 0 0 .082-.08V19.09c0-.667.203-1.172.524-1.51.321-.338.766-.516 1.26-.516.44 0 .802.15 1.056.433.255.285.408.714.408 1.288v5.23c0 .044.036.08.081.08h1.368a.081.081 0 0 0 .082-.08V18.27c0-.897-.314-1.568-.806-2.014zm2.625 9.323-.45 1.223a.081.081 0 0 0 .04.101c.602.293 1.178.46 1.71.46.547 0 1.048-.163 1.476-.497.426-.333.776-.833 1.03-1.503l3.588-9.446a.082.082 0 0 0-.077-.11h-1.464a.081.081 0 0 0-.077.054l-2.321 6.467-2.385-6.468a.082.082 0 0 0-.076-.053h-1.497a.081.081 0 0 0-.076.11l3.288 8.452-.23.63c-.23.612-.698.897-1.244.897-.37 0-.74-.108-1.113-.357a.081.081 0 0 0-.122.04zM5.87 6.314h.872L7.349 4.8h3.162l.616 1.514H12L9.445.132h-1.03L5.87 6.314zm1.735-2.219L8.935.82l1.32 3.276h-2.65zm8.161-2.228h-.748v2.528c0 .792-.493 1.285-1.171 1.285-.555 0-.934-.343-.934-1.048V1.867h-.748V4.8c0 1.11.642 1.594 1.497 1.594.678 0 1.083-.273 1.356-.74l.14.66h.608V1.867zm.444 0v.66h.757v2.616c0 .916.502 1.25 1.075 1.25.202 0 .422-.035.625-.123v-.66a.915.915 0 0 1-.414.097c-.317 0-.528-.176-.528-.626V2.528h.942v-.661h-.942V.572l-.758.282v1.013h-.757zm5.098-.114c-1.373 0-2.14 1.065-2.14 2.325 0 1.259.767 2.316 2.14 2.316 1.374 0 2.15-1.057 2.15-2.316 0-1.26-.776-2.325-2.15-2.325zm-1.373 2.325c0-.855.457-1.603 1.373-1.603.925 0 1.383.748 1.383 1.603 0 .845-.458 1.594-1.383 1.594-.916 0-1.373-.749-1.373-1.594zM27.06 1.54l.722-.22C27.552.431 26.752 0 25.924 0c-.925 0-1.859.546-1.859 1.7 0 1.153.881 1.497 1.577 1.761l.308.115c.59.22 1.171.475 1.171 1.162 0 .634-.52.978-1.136.978-.607 0-1.268-.353-1.409-1.128l-.784.203c.23 1.11 1.198 1.664 2.158 1.664 1.04 0 1.982-.625 1.982-1.814 0-1.092-.802-1.453-1.603-1.744l-.353-.132c-.493-.176-1.127-.431-1.127-1.127 0-.608.485-.916 1.04-.916.528 0 1.047.273 1.17.82zm4.599 1.78.66-.247c-.255-.916-.995-1.321-1.77-1.321-1.11 0-2.14.748-2.14 2.342 0 1.559.986 2.299 2.079 2.299.8 0 1.497-.397 1.84-1.25l-.616-.291c-.22.554-.617.827-1.163.827-.766 0-1.374-.528-1.374-1.602 0-1.084.617-1.612 1.357-1.612.528 0 .96.273 1.127.854zm3.198-1.568c-1.373 0-2.14 1.065-2.14 2.325 0 1.259.767 2.316 2.14 2.316 1.374 0 2.15-1.057 2.15-2.316 0-1.26-.776-2.325-2.15-2.325zm-1.373 2.325c0-.855.457-1.603 1.373-1.603.925 0 1.383.748 1.383 1.603 0 .845-.458 1.594-1.383 1.594-.916 0-1.373-.749-1.373-1.594zm7.82-2.211h-.748v2.528c0 .792-.493 1.285-1.172 1.285-.554 0-.933-.343-.933-1.048V1.867h-.749V4.8c0 1.11.643 1.594 1.498 1.594.678 0 1.083-.273 1.356-.74l.14.66h.608V1.867zm.488 0v.66h.757v2.616c0 .916.502 1.25 1.075 1.25.202 0 .422-.035.625-.123v-.66a.915.915 0 0 1-.414.097c-.317 0-.528-.176-.528-.626V2.528h.942v-.661h-.942V.572l-.758.282v1.013h-.757zm7.194 4.447v-.748h-3.109c1.497-1.127 2.907-2.272 2.907-3.69 0-.995-.687-1.744-1.841-1.744-1.233 0-2.017.802-2.017 1.929 0 .105.01.229.027.343l.704-.07a1.498 1.498 0 0 1-.026-.273c0-.678.493-1.207 1.25-1.207.696 0 1.145.44 1.145 1.11 0 1.136-1.286 2.193-3.073 3.54v.81h4.033zm2.926 0h.775V4.817h1.021V4.07h-1.021V2.633h-.775V4.07h-2.087L52.246.23h-.907L48.97 4.016v.801h2.942v1.497z" fill="#333"/></g><defs><clipPath id="nclip0"><path fill="#fff" d="M0 0h59.578v32H0z"/></clipPath></defs></svg>