<svg fill="#949494" version="1.1" id="svg893" width="16" height="18" xmlns="http://www.w3.org/2000/svg"><g transform="scale(.6)" id="g891"><path d="M2.447 5.97c-.259 0-.477.091-.587.269-.113.184-.096.421.025.66l2.911 5.039v.024L.222 20.034c-.119.238-.113.476 0 .66.11.177.303.293.563.293H5.09c.644 0 .954-.434 1.174-.831l4.648-8.219c-.018-.028-2.96-5.161-2.96-5.161-.215-.382-.538-.807-1.199-.807H2.447ZM20.533.075c-.643 0-.922.405-1.153.82L9.8 17.883l6.117 11.223c.214.382.543.82 1.203.82h4.3c.259 0 .462-.098.571-.275.115-.184.112-.426-.009-.665l-6.069-11.089v-.028l9.532-16.854c.12-.238.122-.481.009-.664-.11-.177-.313-.275-.573-.275h-4.349z" fill-rule="evenodd" clip-rule="evenodd" id="path889"/></g></svg>